<svg id="d_icon_like_activecopy" xmlns="http://www.w3.org/2000/svg" width="24" height="24" viewBox="0 0 24 24">
  <g id="card_icon_com_a30_24px">
    <g id="like_icon" data-name="like icon" opacity="0.5">
      <rect id="矩形" width="24" height="24" fill="none"/>
      <g id="群組" transform="translate(4 5.5)">
        <path id="Fill_1" data-name="Fill 1" d="M4.613,14.346a1,1,0,0,1-.116-.007,1.07,1.07,0,0,1-.945-1.181l.188-1.707H3.09A3.092,3.092,0,0,1,0,8.363V3.089A3.093,3.093,0,0,1,3.09,0H12.6a3.093,3.093,0,0,1,3.09,3.089V8.363a3.092,3.092,0,0,1-3.09,3.088H8.24L5.329,14.072A1.069,1.069,0,0,1,4.613,14.346ZM3.09,1.174A1.917,1.917,0,0,0,1.175,3.089V8.363A1.917,1.917,0,0,0,3.09,10.278H5.053l-.009.074-.3,2.682L7.79,10.278H12.6a1.917,1.917,0,0,0,1.915-1.915V3.089A1.917,1.917,0,0,0,12.6,1.174Z" transform="translate(-0.001 0)" fill="#1a1a1a" stroke="#1a1a1a" stroke-miterlimit="10" stroke-width="0.1"/>
      </g>
    </g>
  </g>
</svg>
