<svg id="d_icon_like_active" xmlns="http://www.w3.org/2000/svg" xmlns:xlink="http://www.w3.org/1999/xlink" width="24" height="24" viewBox="0 0 24 24">
  <defs>
    <clipPath id="clip-path">
      <path id="Clip_2" data-name="Clip 2" d="M0,0H17.674V15.147H0Z" transform="translate(0 0)" fill="none"/>
    </clipPath>
  </defs>
  <g id="card_icon_gp_a30_24px" opacity="0.5">
    <rect id="矩形" width="24" height="24" fill="none"/>
    <g id="群組" transform="translate(3 4)">
      <path id="Clip_2-2" data-name="Clip 2" d="M0,0H17.674V15.147H0Z" transform="translate(0 0)" fill="none"/>
      <g id="群組-2" data-name="群組" clip-path="url(#clip-path)">
        <path id="Fill_1" data-name="Fill 1" d="M2.227,15.149H.708A.64.64,0,0,1,0,14.439Q0,10.1,0,5.757a.638.638,0,0,1,.7-.713H1.9l2.413,0a.622.622,0,0,1,.683.6C6.838,3.091,7.955,1.563,8.509.832A2.043,2.043,0,0,1,10.109,0a1.784,1.784,0,0,1,.356.037,1.819,1.819,0,0,1,1.471,1.408,2.132,2.132,0,0,1,.059.526c0,.733,0,1.478,0,2.2v.876h1.964c.457,0,.839,0,1.2,0a2.547,2.547,0,0,1,1.854.815,2.458,2.458,0,0,1,.648,1.871,4.8,4.8,0,0,1-.211.967c-.017.06-.035.12-.052.18-.443,1.578-.886,3.121-1.377,4.83a2,2,0,0,1-1.91,1.439H6.385L5.01,14.213V14.4c0,.508-.239.744-.752.744H2.227Zm7.881-13.9a.814.814,0,0,0-.606.337c-.948,1.251-3.5,4.786-4.4,6.043v5.139L6.769,13.9h7.347a.743.743,0,0,0,.713-.536c.408-1.418.889-3.1,1.374-4.822l.057-.2a3.9,3.9,0,0,0,.164-.708,1.22,1.22,0,0,0-.324-.931,1.27,1.27,0,0,0-.942-.413c-.344,0-.713,0-1.2,0h-.967l-1,0H10.75V3.79c0-.594,0-1.208,0-1.813a.847.847,0,0,0-.018-.211.594.594,0,0,0-.521-.507A.467.467,0,0,0,10.108,1.247ZM1.9,6.29l-.653,0q0,3.8,0,7.608H3.764c0-1.606,0-5.731,0-7.608H1.9Z" transform="translate(0 -0.001)" fill="#1a1a1a"/>
      </g>
    </g>
  </g>
</svg>
