<?xml version="1.0" encoding="utf-8"?>
<!-- Generator: Adobe Illustrator 24.0.1, SVG Export Plug-In . SVG Version: 6.00 Build 0)  -->
<svg version="1.1" id="圖層_1" xmlns="http://www.w3.org/2000/svg" xmlns:xlink="http://www.w3.org/1999/xlink" x="0px" y="0px"
	 viewBox="0 0 35 35" style="enable-background:new 0 0 35 35;" xml:space="preserve">
<style type="text/css">
	.st0{fill:#1877F0;}
	.st1{fill:#FFFFFF;}
</style>
<g>
	<path class="st0" d="M35,17.5C35,7.8,27.2,0,17.5,0S0,7.8,0,17.5c0,8.8,6.5,16,14.8,17.3V22.6h-4.4v-5.1h4.4v-3.8
		c0-4.4,2.7-6.8,6.7-6.8c1.9,0,4,0.4,4,0.4v4.4h-2.3c-2.1,0-2.9,1.3-2.9,2.7v3.2h4.8l-0.8,5.1h-4v12.2C28.5,33.5,35,26.2,35,17.5z"
		/>
	<path class="st1" d="M24.3,22.6l0.8-5.1h-4.8v-3.2c0-1.3,0.8-2.7,2.9-2.7h2.3V7.2c0,0-2.1-0.4-4-0.4c-4,0-6.7,2.5-6.7,6.8v3.8h-4.4
		v5.1h4.4v12.2c1,0.2,1.7,0.2,2.7,0.2c1,0,1.9,0,2.7-0.2V22.6H24.3z"/>
</g>
</svg>
