<?xml version="1.0" encoding="utf-8"?>
<!-- Generator: Adobe Illustrator 24.0.1, SVG Export Plug-In . SVG Version: 6.00 Build 0)  -->
<svg version="1.1" id="圖層_1" xmlns="http://www.w3.org/2000/svg" xmlns:xlink="http://www.w3.org/1999/xlink" x="0px" y="0px"
	 viewBox="0 0 41.8 35" style="enable-background:new 0 0 41.8 35;" xml:space="preserve">
<style type="text/css">
	.st0{fill:#FF6257;}
</style>
<g>
	<path class="st0" d="M41,10.8c-0.8,0.2-1.5,0.4-2.3,0.4C36.1,4.9,30.2,0.4,23.2,0C17.3-0.2,12,2.3,8.6,6.4C8.4,6.6,8.4,6.8,8.2,7
		l0,0l0,0C8.6,6.6,9,6.4,9.4,6.2l0,0c0.4-0.2,1.1-0.2,1.5-0.2c2.5,0.4,3.8,4.5,3,9.1c-0.8,4.5-3.6,7.6-6.1,7.2
		c-1.7-0.4-3-2.5-3.2-5.3l0,0l0,0c0,0.2,0,0.4,0,0.6c0,0,0,0,0,0.2l0,0c0,0.2,0,0.4,0,0.8c0,0.2,0,0.2,0,0.4c0,0.2,0,0.2,0,0.4
		c0.2,1.9,0.8,3.8,1.7,5.7c0,0.2,0,0.4-0.2,0.6l-0.4,0.4c-0.2,0.2-0.4,0.8-0.2,1.3v0.2l0,0V28l0,0l0.4-0.2c0.2-0.2,0.4-0.2,0.6,0
		s0.2,0.4,0,0.6L6,28.9l0,0l2.1,2.5c0.6,0.6,1.5,0.8,2.1,0.2l0.4-0.4c0.2-0.2,0.4-0.2,0.6,0c3.2,2.5,7,3.8,11.5,3.8
		c3.6,0,7-1.3,9.8-3.2c0.2-0.2,0.4-0.2,0.6,0l0.2,0.2c0.6,0.4,1.3,0.6,1.9,0.2l0,0l0,0l-0.2-0.4c-0.2-0.2-0.2-0.4,0-0.6
		c0.2-0.2,0.4-0.2,0.6,0l0.4,0.4l2.1-2.3c0.6-0.6,0.6-1.7,0-2.3l-0.4-0.4c-0.2-0.2-0.2-0.4,0-0.6c1.7-3,2.5-6.4,2.1-10
		c0-0.4-0.2-1.1-0.2-1.5c0.4-0.4,1.5-1.5,1.9-2.3C41.9,11.3,42.1,10.4,41,10.8z"/>
	<path class="st0" d="M5.4,16.1c0.2,2.1,1.1,3.8,2.5,4c1.9,0.4,4-2.1,4.7-5.5c0.6-3.4-0.2-6.6-2.3-7C9.4,7.4,8.8,7.9,7.9,8.5
		c-0.8,0.6-1.5,1.7-1.9,3l0,0c-0.2,0-0.4-0.2-0.6-0.2C6,10.6,6.2,9.3,5.6,8.5C5,7.4,3.5,7.2,2.6,8.1C1.8,8.5,1.6,9.6,2,10.6
		c-0.4,0-0.8,0.2-1.1,0.4c-1.1,0.6-1.3,2.1-0.4,3c0.6,1.1,2.1,1.3,3,0.4c0.2-0.2,0.6-0.4,0.6-0.8c0.4,0.6,0.8,1.1,1.3,1.5
		C5.4,15.5,5.4,15.7,5.4,16.1z M7.7,10.2c0.4-0.4,1.1-0.6,1.5-0.4c1.3,0.2,1.9,2.3,1.5,4.5c-0.4,2.3-1.9,3.8-3.2,3.6
		C6.7,17.6,6,16.6,6,15.3c0.2,0.2,0.6,0.2,1.1,0.2c0.8,0,1.5-0.2,1.9-0.8c0.6-0.8,0.2-3-0.6-3.4c-0.6-0.2-1.1,0-1.5,0
		C7.1,10.8,7.3,10.4,7.7,10.2z"/>
</g>
</svg>
