<?xml version="1.0" encoding="utf-8"?>
<!-- Generator: Adobe Illustrator 24.0.1, SVG Export Plug-In . SVG Version: 6.00 Build 0)  -->
<svg version="1.1" id="圖層_1" xmlns="http://www.w3.org/2000/svg" xmlns:xlink="http://www.w3.org/1999/xlink" x="0px" y="0px"
	 viewBox="0 0 43.1 35" style="enable-background:new 0 0 43.1 35;" xml:space="preserve">
<style type="text/css">
	.st0{fill:#1FAAF3;}
</style>
<g>
	<g id="Logo__x2014__FIXED_27_">
		<path class="st0" d="M13.7,35c16.2,0,25-13.4,25-25c0-0.5,0-0.7,0-1.2C40.3,7.6,42,6,43.1,4.2c-1.6,0.7-3.2,1.2-5.1,1.4
			c1.9-1.2,3.2-2.8,3.9-4.9c-1.6,0.9-3.5,1.6-5.6,2.1C34.8,1.2,32.5,0,29.9,0c-4.9,0-8.8,3.9-8.8,8.8c0,0.7,0,1.4,0.2,2.1
			C14.1,10.4,7.6,7,3.2,1.6c-0.9,1.6-1.4,3-1.4,4.6c0,3,1.6,5.8,3.9,7.4c-1.4,0-2.8-0.5-3.9-1.2c0,0,0,0,0,0.2c0,4.2,3,7.9,7,8.6
			c-0.7,0.2-1.4,0.2-2.3,0.2c-0.5,0-1.2,0-1.6-0.2c1.2,3.5,4.4,6,8.1,6c-3,2.3-6.7,3.7-10.9,3.7c-0.7,0-1.4,0-2.1-0.2
			C3.9,33.6,8.6,35,13.7,35"/>
	</g>
</g>
</svg>
