<?xml version="1.0" encoding="utf-8"?>
<!-- Generator: Adobe Illustrator 24.0.1, SVG Export Plug-In . SVG Version: 6.00 Build 0)  -->
<svg version="1.1" id="圖層_1" xmlns="http://www.w3.org/2000/svg" xmlns:xlink="http://www.w3.org/1999/xlink" x="0px" y="0px"
	 viewBox="0 0 35 35" style="enable-background:new 0 0 35 35;" xml:space="preserve">
<style type="text/css">
	.st0{fill:#00A5B5;}
</style>
<g>
	<g>
		<path class="st0" d="M18.5,23.6c-1.9,0-3.8-0.7-5.2-2.1c-0.7-0.7-1.3-1.7-1.6-2.6c-0.3-0.8,0.2-1.6,0.9-1.8
			c0.8-0.3,1.6,0.2,1.8,0.9c0.2,0.5,0.5,1,0.9,1.4c1.7,1.7,4.7,1.7,6.4,0l8.9-8.9c1.7-1.7,1.7-4.7,0-6.4c-1.6-1.6-4.8-1.6-6.4,0
			l-5,5c-0.6,0.6-1.5,0.6-2,0c-0.6-0.6-0.6-1.5,0-2l5-5c2.8-2.8,7.7-2.8,10.5,0c2.8,2.8,2.8,7.7,0,10.5l-8.9,8.9
			C22.3,22.9,20.4,23.6,18.5,23.6z"/>
	</g>
	<g>
		<path class="st0" d="M7.6,35c-1.9,0-3.8-0.7-5.2-2.1c-1.3-1.3-2.1-3.2-2.1-5.2c0-2,0.8-3.9,2.1-5.2l8.9-8.9
			c2.8-2.8,7.7-2.8,10.5,0c0.7,0.7,1.3,1.7,1.6,2.6c0.3,0.8-0.2,1.6-0.9,1.8c-0.8,0.3-1.6-0.2-1.8-0.9c-0.2-0.5-0.5-1-0.9-1.4
			c-1.7-1.7-4.7-1.7-6.4,0l-8.9,8.9c-0.8,0.8-1.3,2-1.3,3.2c0,1.2,0.5,2.4,1.3,3.2c1.6,1.6,4.8,1.6,6.4,0l5-5c0.6-0.6,1.5-0.6,2,0
			c0.6,0.6,0.6,1.5,0,2l-5,5C11.4,34.3,9.5,35,7.6,35z"/>
	</g>
</g>
</svg>
