<?xml version="1.0" encoding="utf-8"?>
<!-- Generator: Adobe Illustrator 24.0.1, SVG Export Plug-In . SVG Version: 6.00 Build 0)  -->
<svg version="1.1" id="圖層_1" xmlns="http://www.w3.org/2000/svg" xmlns:xlink="http://www.w3.org/1999/xlink" x="0px" y="0px"
	 viewBox="0 0 40.6 35" style="enable-background:new 0 0 40.6 35;" xml:space="preserve">
<style type="text/css">
	.st0{fill:#00A5B5;}
</style>
<path class="st0" d="M40.6,9.2c0,0-0.2-0.8-0.4-0.7c-0.2,0.1-0.7-0.1-1.1-0.3L38.6,8l-1.7,0c-0.2,0-1.1,0-1.7,0.2c0,0,1-0.1,2.2,0.3
	c0.1,0,0.1,0,0.1,0.1c-0.4,0.1-2.5,0.5-2.7,0.5c-0.4,0,1.4,0.2,2.4,0.1l-0.7,0.6c-0.1,0.1-1.1,0.5-1.3,0.7c-0.3,0.1,0.7-0.1,0.7-0.1
	c-0.2,0.1-0.8,0.4-1.1,0.4c0,0,0.2,0.2,0.5,0.3c-0.4,0.1-1,0.2-1.1,0.2c0,0,0.3,0.1,0.5,0.2c-0.3,0-0.6,0.1-0.8,0.2
	c-0.2-0.3-0.6-0.8-0.6-1.3L35,6.5c0.3,0.5,0.7,0.9,0.5,0.7c-0.1-0.2-0.2-0.6-0.3-0.9l0-0.2l0.5-1.2l0.1-0.1l0.1,0L36.1,5
	c0.1,0.2,0.3,0.5,0.4,0.6c0.1,0.2,0.2,0.5,0.3,0.7c0,0-0.2-0.8-0.1-1.2C36.3,4.8,36,3.9,36,3.9l-0.4,0.2c-0.2,0-0.3,0-0.4,0
	c-0.3-0.1-0.5-0.3-0.7-0.3c-1.1-0.6-4.5-2.1-8.8-2.9C20.5-0.1,7.2-0.2,4.1,0.3C0.9,0.7,2.2,0.7,2.2,0.7s6,0.7,11.5,2.6
	c-5.5,0.5-11.1,1-11.1,1L0,5c1-0.1,2.2-0.2,3.6-0.2c0.8,0,1.8,0.1,2.9,0.2l3.3,0.6c13.1,2.3,5,7.8,5,7.8l-0.6,0.5
	c4.4-2.6,7.8-2.6,7.8-2.6C25.4,11.4,23,16,23,16c2.7-2.8,5.6-3.2,7.2-3.1c0.4,0.1,0.8,0.2,1.1,0.3c-0.1,0.1-0.6,0.7-0.7,0.8
	l-2.4,0.5c-0.2,0.2,1.6,0,1.4,0.2c-0.3,0.2,0.1,0.1-0.2,0.3c-0.2,0.1-2,0.3-2.2,0.4c-0.2,0.1,1.2,0.2,1,0.3
	c-0.2,0.1-0.2,0.1-0.1,0.1c0,0-0.1,0-0.2,0.1c-0.2,0.1-2.7,0.1-2.9,0.2c-0.2,0.1,1.2,0.4,1,0.5c-2.2,0.5-2.4,1.2-5.6,0.3
	c-0.2,0-1.5-1.1-1.8-1.2c-0.2,0,0.7,1.1,0.5,1.1c-0.2,0-2.2-1-2.3-1c-0.5-0.1,1.1,0.9,1.1,0.9c-0.3-0.1-0.5-0.2-0.9-0.2
	c-0.2,0-2.1-0.7-2.4-0.7c-0.1,0,1.1,0.7,1,0.7c-0.5,0-0.8-0.1-1.2-0.1c-0.3,0-2.1-0.5-2.4-0.5c-0.3,0,1.1,0.5,0.9,0.6
	c-1.1,0.1-1.8,0.3-1.8,0.3c-1.5,0.5-0.3,0.3-0.3,0.3c5-0.9,6.8,0.4,9.2,1.1c5.3,1.6,10.6-1.6,10.6-1.6l-0.3,0.7
	c0.1,0.7-0.7,1.3-0.7,1.3l-0.5,0.1l-0.3-0.3l-0.4,0.4l-0.1,0.7c0,0.1-0.1,0.5-0.2,0.8c-0.7,0.3-1.4,0.7-2,1.2
	c-3.3,2.7-3.7,7.6-0.9,10.8c2.7,3.2,7.6,3.7,10.8,0.9c0,0,0.1-0.1,0.1-0.1c-2.7,1.7-6.4,1.1-8.6-1.6c-2.4-2.9-2.1-7,0.6-9.3
	c2.7-2.3,6.9-1.8,9.3,1c0.3,0.4,0.6,0.8,0.8,1.2c-0.3-0.7-0.7-1.5-1.3-2.1c-1.8-2.1-4.5-3-7.1-2.6c0-0.6,0.7-1,0.7-1l1.2-0.1
	c1.4-0.6,2-1.9,2-1.9c0.2-0.7,0.2-1.2,0.1-1.5l1.6-1.1c0.2,0,0.3,0,0.4,0l0.5,0l0.4,0.1l0.2-0.1l0.1,0l0,0l1.8-0.7l-0.1,0.7l0.6-0.4
	c0,0.1,0.2,0.2,0.1,0.5c0,0.2,0.4-0.3,0.4-0.3l0.2-0.2c0,0.1,0,0.2,0,0.2l0.2-0.5l0,0l0,0l0.1-0.3l-0.9-0.8l-1.9,0.2
	c0,0-0.1,0.1-0.1,0.1c0.2-0.3,0.4-0.8,0.4-0.8l0.1-1.1l0.6-0.8l0.3-0.1C38.8,10,39,10,39.1,10c0.1,0,0.3,0.1,0.4,0.2l0.1,0.1
	l0.4-0.3c0,0-0.1,0-0.3,0c0,0,0,0,0,0c0,0,0,0,0,0c0,0-0.1,0-0.1,0l0-0.1l-0.1,0C39.3,9.7,39,9.4,39,9.4L39.4,9l0.5,0
	c0,0,0.2,0,0.2,0l0.2,0.2l0-0.1c0.3,0.1,0.2,0.3,0.2,0.3L40.6,9.2z M39,8.7l-0.5,0.1L38,8.4L39,8.7L39,8.7z"/>
</svg>
